<svg width="512" height="512" viewBox="0 0 512 512" xmlns="http://www.w3.org/2000/svg">
  <rect width="512" height="512" rx="96" fill="#EAF0EC"/>
  <g transform="translate(48, 144)">
    <rect x="0"   y="0"   width="32"  height="224" rx="8" fill="#4A5C52"/>
    <rect x="0"   y="0"   width="104" height="32"  rx="8" fill="#4A5C52"/>
    <rect x="0"   y="192" width="104" height="32"  rx="8" fill="#4A5C52"/>
    <rect x="48"  y="40"  width="128" height="32"  rx="8" fill="#4A5C52"/>
    <rect x="48"  y="96"  width="88"  height="32"  rx="8" fill="#7A9186"/>
    <rect x="48"  y="152" width="48"  height="32"  rx="8" fill="#AEBFB8"/>
    <rect x="384" y="0"   width="32"  height="224" rx="8" fill="#4A5C52"/>
    <rect x="312" y="0"   width="104" height="32"  rx="8" fill="#4A5C52"/>
    <rect x="312" y="192" width="104" height="32"  rx="8" fill="#4A5C52"/>
    <rect x="240" y="40"  width="128" height="32"  rx="8" fill="#4A5C52"/>
    <rect x="280" y="96"  width="88"  height="32"  rx="8" fill="#7A9186"/>
    <rect x="320" y="152" width="48"  height="32"  rx="8" fill="#AEBFB8"/>
  </g>
</svg>
