<svg width="64" height="64" viewBox="0 0 64 64" xmlns="http://www.w3.org/2000/svg">
  <rect width="64" height="64" rx="12" fill="#1E2C25"/>
  <g transform="translate(6, 18)">
    <rect x="0"  y="0"  width="4"  height="28" rx="1" fill="#AEBFB8"/>
    <rect x="0"  y="0"  width="13" height="4"  rx="1" fill="#AEBFB8"/>
    <rect x="0"  y="24" width="13" height="4"  rx="1" fill="#AEBFB8"/>
    <rect x="6"  y="5"  width="16" height="4"  rx="1" fill="#AEBFB8"/>
    <rect x="6"  y="12" width="11" height="4"  rx="1" fill="#7A9186"/>
    <rect x="6"  y="19" width="6"  height="4"  rx="1" fill="#4A5C52"/>
    <rect x="48" y="0"  width="4"  height="28" rx="1" fill="#AEBFB8"/>
    <rect x="39" y="0"  width="13" height="4"  rx="1" fill="#AEBFB8"/>
    <rect x="39" y="24" width="13" height="4"  rx="1" fill="#AEBFB8"/>
    <rect x="30" y="5"  width="16" height="4"  rx="1" fill="#AEBFB8"/>
    <rect x="35" y="12" width="11" height="4"  rx="1" fill="#7A9186"/>
    <rect x="40" y="19" width="6"  height="4"  rx="1" fill="#4A5C52"/>
  </g>
</svg>
