<svg width="512" height="512" viewBox="0 0 512 512" xmlns="http://www.w3.org/2000/svg">
  <rect width="512" height="512" rx="80" fill="#1E2C25"/>
  <g transform="translate(80, 156)">
    <rect x="0"   y="0"   width="36"  height="200" rx="10" fill="#AEBFB8"/>
    <rect x="0"   y="0"   width="110" height="36"  rx="10" fill="#AEBFB8"/>
    <rect x="0"   y="164" width="110" height="36"  rx="10" fill="#AEBFB8"/>
    <rect x="48"  y="40"  width="140" height="36"  rx="8"  fill="#AEBFB8"/>
    <rect x="48"  y="96"  width="100" height="36"  rx="8"  fill="#7A9186"/>
    <rect x="48"  y="152" width="58"  height="36"  rx="8"  fill="#4A5C52"/>
    <rect x="316" y="0"   width="36"  height="200" rx="10" fill="#AEBFB8"/>
    <rect x="242" y="0"   width="110" height="36"  rx="10" fill="#AEBFB8"/>
    <rect x="242" y="164" width="110" height="36"  rx="10" fill="#AEBFB8"/>
    <rect x="164" y="40"  width="140" height="36"  rx="8"  fill="#AEBFB8"/>
    <rect x="204" y="96"  width="100" height="36"  rx="8"  fill="#7A9186"/>
    <rect x="246" y="152" width="58"  height="36"  rx="8"  fill="#4A5C52"/>
  </g>
</svg>
